<?xml version="1.0" encoding="UTF-8"?>
<svg width="32px" height="52px" viewBox="0 0 32 52" version="1.1" xmlns="http://www.w3.org/2000/svg" xmlns:xlink="http://www.w3.org/1999/xlink">
    <!-- Generator: Sketch 51.2 (57519) - http://www.bohemiancoding.com/sketch -->
    <title>safari-pinned-tab</title>
    <desc>Created with Sketch.</desc>
    <defs></defs>
    <g id="Icons" stroke="none" stroke-width="1" fill="none" fill-rule="evenodd">
        <g id="Favicon" transform="translate(-16.000000, -6.000000)" fill="#FFFFFF" fill-rule="nonzero">
            <g id="safari-pinned-tab" transform="translate(16.000000, 6.000000)">
                <g id="Group" transform="translate(16.010700, 26.000000) scale(-1, 1) rotate(-180.000000) translate(-16.010700, -26.000000) translate(0.010700, -0.000000)">
                    <path d="M4.99670782,46.9711934 L0,41.963786 L0,31.3925926 C0,25.5720165 0.0320987654,20.7465021 0.0748971193,20.6823045 C0.181893004,20.5004115 20.6288066,0 20.6930041,0 C20.7251029,0 20.7465021,3.18847737 20.7465021,7.09382716 L20.7465021,14.1769547 L15.4074074,19.526749 L10.0576132,24.8658436 L10.0576132,38.3901235 C10.0576132,45.837037 10.0469136,51.9358025 10.0255144,51.9465021 C10.0041152,51.9572016 7.74650206,49.7209877 4.99670782,46.9711934 Z" id="Shape"></path>
                    <path d="M26.5135802,39 L21.5489712,34.0353909 L21.5382716,17.0230453 C21.5382716,7.66090535 21.5703704,0 21.6024691,0 C21.6452675,0 23.9028807,2.24691358 26.6312757,4.99670782 L31.5851852,10.0041152 L31.5958848,26.9415638 C31.6065844,36.2609053 31.5744856,43.9111111 31.5423868,43.9325103 C31.5102881,43.9539095 29.2419753,41.7390947 26.5135802,39 Z" id="Shape"></path>
                </g>
            </g>
        </g>
    </g>
</svg>