<?xml version="1.0" encoding="UTF-8"?>
<svg width="87px" height="77px" viewBox="0 0 87 77" version="1.1" xmlns="http://www.w3.org/2000/svg" xmlns:xlink="http://www.w3.org/1999/xlink">
    <!-- Generator: Sketch 51.2 (57519) - http://www.bohemiancoding.com/sketch -->
    <title>quotes</title>
    <desc>Created with Sketch.</desc>
    <defs></defs>
    <g id="Vodjo-2018" stroke="none" stroke-width="1" fill="none" fill-rule="evenodd">
        <g id="Home" transform="translate(-1058.000000, -4102.000000)" fill="#F7F7F7">
            <path d="M1141.31641,4102.70117 L1141.31641,4113.54102 C1137.89842,4115.39649 1135.33497,4118.74119 1133.62598,4123.5752 C1131.91698,4128.4092 1131.0625,4134.78121 1131.0625,4142.69141 L1131.0625,4146.06055 L1144.97852,4146.06055 L1144.97852,4178.58008 L1112.45898,4178.58008 L1112.45898,4154.26367 C1112.45898,4139.5175 1114.85154,4127.8477 1119.63672,4119.25391 C1124.4219,4110.66011 1131.64839,4105.14259 1141.31641,4102.70117 Z M1087.11719,4102.70117 L1087.11719,4113.54102 C1083.6992,4115.39649 1081.13575,4118.74119 1079.42676,4123.5752 C1077.71776,4128.4092 1076.86328,4134.78121 1076.86328,4142.69141 L1076.86328,4146.06055 L1090.7793,4146.06055 L1090.7793,4178.58008 L1058.25977,4178.58008 L1058.25977,4154.26367 C1058.25977,4139.5175 1060.65232,4127.8477 1065.4375,4119.25391 C1070.22268,4110.66011 1077.44917,4105.14259 1087.11719,4102.70117 Z" id="quotes"></path>
        </g>
    </g>
</svg>