<svg version="1.1" id="Layer_1" xmlns="http://www.w3.org/2000/svg" xmlns:xlink="http://www.w3.org/1999/xlink" x="0px" y="0px"
	 width="100%" viewBox="0 0 656 652" enable-background="new 0 0 656 652" xml:space="preserve">
<path fill="#17572C" opacity="1.000000" stroke="none" 
	d="
M336.000000,1.000000 
	C339.030609,1.000000 342.061188,1.000000 345.750916,1.375657 
	C377.801880,3.698409 408.346741,9.787543 437.935059,20.518753 
	C449.915131,24.863749 453.048370,32.458363 447.362244,44.032528 
	C441.904694,50.019211 435.705688,50.202919 428.864838,47.738636 
	C376.583557,28.905403 323.031555,24.194881 268.701172,35.882553 
	C170.159363,57.081100 99.370506,114.094627 56.584255,205.102356 
	C33.635197,253.915741 26.440298,305.819702 32.162357,359.410950 
	C34.832474,384.418518 40.497787,408.782074 50.051411,432.516693 
	C109.626488,598.854858 275.552338,649.775513 395.538971,614.931091 
	C355.750366,581.351807 329.127686,539.670166 315.855133,489.453125 
	C314.784302,489.906372 314.015717,490.195007 313.278503,490.548981 
	C267.063934,512.740356 216.240570,483.806183 211.881866,432.741943 
	C211.750351,431.201080 212.401703,429.134460 213.443939,428.019592 
	C237.888626,401.871918 275.664856,397.786285 305.210419,417.958313 
	C306.197235,418.632050 307.316925,419.111084 308.395020,419.691803 
	C309.303711,410.004028 310.163940,400.832886 311.022430,391.680145 
	C305.204071,392.514435 299.961121,393.547913 294.670258,393.946808 
	C289.215820,394.358063 283.684235,394.560089 278.238800,394.152893 
	C213.860107,389.339020 170.852661,327.983826 188.190521,265.700378 
	C188.603073,264.218292 190.083557,262.585815 191.493210,261.893585 
	C246.780594,234.744141 313.893250,263.670471 332.101562,322.429077 
	C333.201843,325.979736 334.170959,329.571075 335.328461,333.585205 
	C336.051544,332.393219 336.494812,331.706940 336.895020,330.996399 
	C357.452667,294.497681 397.045135,281.007263 435.332520,297.640808 
	C437.238312,298.468750 439.401672,300.805725 439.751678,302.745575 
	C441.191864,310.727478 442.827087,318.823883 442.861450,326.884735 
	C443.043579,369.634796 402.380920,405.082214 360.063934,399.301239 
	C353.400726,398.390961 346.854828,396.622101 339.791901,395.153992 
	C333.075256,437.672852 338.571320,478.390137 356.280060,517.967590 
	C358.309845,511.262268 359.805573,505.096436 362.027985,499.204742 
	C369.223816,480.127899 381.312134,464.752502 397.983276,453.007935 
	C403.111847,449.394897 408.588593,449.056061 413.960358,452.211487 
	C419.194427,455.286011 421.387054,460.211456 420.783813,466.195374 
	C420.259277,471.398956 416.930756,474.712891 412.866577,477.718964 
	C388.485077,495.752655 378.349365,526.577209 387.167938,555.536011 
	C393.960571,577.841919 410.496307,591.736877 429.323120,604.105835 
	C431.422577,604.067810 433.391876,604.096497 435.089203,603.431213 
	C474.357391,588.040833 509.110138,565.646606 538.403320,535.263672 
	C605.045349,466.142487 632.626099,383.498383 621.660339,288.340454 
	C616.239563,241.300018 599.193481,198.221741 572.295227,159.181702 
	C567.574402,152.329880 566.856750,145.834854 572.168701,138.829163 
	C581.091309,131.928604 589.529968,133.184097 595.784973,142.567551 
	C648.548218,221.720642 665.776611,308.104004 644.016174,400.634674 
	C620.398621,501.062012 560.672058,574.268860 468.288361,620.007080 
	C406.296112,650.698853 340.460419,659.086731 272.451111,647.582214 
	C201.632019,635.602295 141.129623,603.252319 91.645554,551.130432 
	C38.636795,495.295959 9.129194,428.734985 2.826329,351.944244 
	C2.307416,345.622131 1.612914,339.314423 0.999999,333.000000 
	C1.000000,328.975464 1.000000,324.950897 1.399699,320.282257 
	C3.271979,303.906586 3.715427,287.997559 6.392506,272.473694 
	C19.035610,199.158798 52.692162,136.936417 107.601173,86.693291 
	C160.988312,37.842697 223.975616,9.928481 296.082611,2.794341 
	C300.075165,2.399325 304.028442,1.607257 308.000000,1.000000 
	C311.361298,1.000000 314.722565,1.000000 318.844879,1.286503 
	C325.070587,1.382003 330.535309,1.191002 336.000000,1.000000 
M242.460587,440.635437 
	C249.068588,464.224152 276.718262,476.448700 298.936523,465.604675 
	C305.004669,462.643005 305.198578,461.724457 301.021057,455.340363 
	C288.509705,434.012970 265.437683,428.014893 242.460587,440.635437 
M414.253265,323.373169 
	C414.860779,320.615906 413.313934,320.155060 410.978821,319.760529 
	C388.146606,315.903137 365.323242,330.215027 359.002472,352.601044 
	C358.310425,355.052094 358.327026,357.703247 357.667389,360.771240 
	C356.400360,369.461884 356.653320,370.248810 361.892578,370.855682 
	C393.462860,374.512512 416.064087,348.403076 414.253265,323.373169 
M307.520477,343.787628 
	C305.386749,326.249146 297.832855,311.345947 284.776855,299.581207 
	C268.560516,284.968719 249.594055,278.074768 226.675690,281.009186 
	C223.741547,281.529724 220.812714,282.082733 217.871918,282.562500 
	C214.262131,283.151398 212.801910,285.321960 213.013824,288.859161 
	C213.310989,293.819519 213.170517,298.840240 213.892059,303.735657 
	C219.897705,344.482117 256.955719,371.546326 297.452759,364.908539 
	C308.065521,363.169006 308.094391,363.168823 308.041351,352.457977 
	C308.028229,349.807953 307.761230,347.159149 307.520477,343.787628 
z"/>
<path fill="#FFFFFF" opacity="1.000000" stroke="none" 
	d="
M447.640289,43.847870 
	C453.048370,32.458363 449.915131,24.863749 437.935059,20.518753 
	C408.346741,9.787543 377.801880,3.698409 346.205017,1.375657 
	C449.643280,1.000000 553.286560,1.000000 656.964966,1.000000 
	C656.964966,218.260925 656.964966,435.521851 656.964966,652.891357 
	C438.455109,652.891357 219.910126,652.891357 1.000000,652.891357 
	C1.000000,546.646057 1.000000,440.291687 0.999999,333.468658 
	C1.612914,339.314423 2.307416,345.622131 2.826329,351.944244 
	C9.129194,428.734985 38.636795,495.295959 91.645554,551.130432 
	C141.129623,603.252319 201.632019,635.602295 272.451111,647.582214 
	C340.460419,659.086731 406.296112,650.698853 468.288361,620.007080 
	C560.672058,574.268860 620.398621,501.062012 644.016174,400.634674 
	C665.776611,308.104004 648.548218,221.720642 595.784973,142.567551 
	C589.529968,133.184097 581.091309,131.928604 571.831055,138.765411 
	C570.139893,138.371857 568.967407,138.050003 568.076965,137.362823 
	C558.799622,130.203247 549.499023,123.070488 540.356750,115.740845 
	C536.695984,112.805901 533.411621,109.401443 530.379150,106.179642 
	C534.053467,105.109360 537.860657,104.817047 540.450073,102.889076 
	C547.835388,97.390129 547.747559,87.231903 540.539246,80.853470 
	C524.291260,66.476059 506.566345,54.147018 487.732910,43.404156 
	C475.382111,36.359070 465.099365,41.827511 463.640442,55.856995 
	C458.104736,51.756245 452.872528,47.802055 447.640289,43.847870 
z"/>
<path fill="#FFFFFF" opacity="1.000000" stroke="none" 
	d="
M307.531342,1.000000 
	C304.028442,1.607257 300.075165,2.399325 296.082611,2.794341 
	C223.975616,9.928481 160.988312,37.842697 107.601173,86.693291 
	C52.692162,136.936417 19.035610,199.158798 6.392506,272.473694 
	C3.715427,287.997559 3.271979,303.906586 1.399699,319.819092 
	C1.000000,213.740997 1.000000,107.481995 1.000000,1.000000 
	C103.020782,1.000000 205.041733,1.000000 307.531342,1.000000 
z"/>
<path fill="#4F805F" opacity="1.000000" stroke="none" 
	d="
M335.532410,1.000000 
	C330.535309,1.191002 325.070587,1.382003 319.302948,1.286503 
	C324.354919,1.000000 329.709869,1.000000 335.532410,1.000000 
z"/>
<path fill="#FFCB08" opacity="1.000000" stroke="none" 
	d="
M429.066315,603.849243 
	C410.496307,591.736877 393.960571,577.841919 387.167938,555.536011 
	C378.349365,526.577209 388.485077,495.752655 412.866577,477.718964 
	C416.930756,474.712891 420.259277,471.398956 420.783813,466.195374 
	C421.387054,460.211456 419.194427,455.286011 413.960358,452.211487 
	C408.588593,449.056061 403.111847,449.394897 397.983276,453.007935 
	C381.312134,464.752502 369.223816,480.127899 362.027985,499.204742 
	C359.805573,505.096436 358.309845,511.262268 356.280060,517.967590 
	C338.571320,478.390137 333.075256,437.672852 339.791901,395.153992 
	C346.854828,396.622101 353.400726,398.390961 360.063934,399.301239 
	C402.380920,405.082214 443.043579,369.634796 442.861450,326.884735 
	C442.827087,318.823883 441.191864,310.727478 439.751678,302.745575 
	C439.401672,300.805725 437.238312,298.468750 435.332520,297.640808 
	C397.045135,281.007263 357.452667,294.497681 336.895020,330.996399 
	C336.494812,331.706940 336.051544,332.393219 335.328461,333.585205 
	C334.170959,329.571075 333.201843,325.979736 332.101562,322.429077 
	C313.893250,263.670471 246.780594,234.744141 191.493210,261.893585 
	C190.083557,262.585815 188.603073,264.218292 188.190521,265.700378 
	C170.852661,327.983826 213.860107,389.339020 278.238800,394.152893 
	C283.684235,394.560089 289.215820,394.358063 294.670258,393.946808 
	C299.961121,393.547913 305.204071,392.514435 311.022430,391.680145 
	C310.163940,400.832886 309.303711,410.004028 308.395020,419.691803 
	C307.316925,419.111084 306.197235,418.632050 305.210419,417.958313 
	C275.664856,397.786285 237.888626,401.871918 213.443939,428.019592 
	C212.401703,429.134460 211.750351,431.201080 211.881866,432.741943 
	C216.240570,483.806183 267.063934,512.740356 313.278503,490.548981 
	C314.015717,490.195007 314.784302,489.906372 315.855133,489.453125 
	C329.127686,539.670166 355.750366,581.351807 395.538971,614.931091 
	C275.552338,649.775513 109.626488,598.854858 50.129208,432.089905 
	C49.780319,429.724609 49.746773,428.039886 49.295391,426.475739 
	C38.576580,389.331940 35.516232,351.610260 40.836769,313.284790 
	C49.766232,248.963043 77.756927,194.008011 125.653046,150.517807 
	C201.514679,81.634621 290.756470,59.206776 390.001709,83.318146 
	C522.484985,115.504623 616.114746,240.747299 598.741333,382.601074 
	C589.177551,460.688782 551.044739,522.836182 488.402252,570.104919 
	C470.096954,583.917725 449.978821,594.594604 429.066315,603.849243 
M347.170227,468.599915 
	C347.328033,469.574524 347.372925,470.584167 347.662384,471.517944 
	C349.264008,476.685059 353.967743,479.649567 359.107697,478.795868 
	C364.170532,477.954987 367.549622,473.459656 367.216278,468.008606 
	C366.916748,463.109558 363.288849,459.359802 358.393982,458.889832 
	C352.810028,458.353638 349.168488,461.276428 347.170227,468.599915 
z"/>
<path fill="#FEFBDA" opacity="1.000000" stroke="none" 
	d="
M429.323120,604.105835 
	C449.978821,594.594604 470.096954,583.917725 488.402252,570.104919 
	C551.044739,522.836182 589.177551,460.688782 598.741333,382.601074 
	C616.114746,240.747299 522.484985,115.504623 390.001709,83.318146 
	C290.756470,59.206776 201.514679,81.634621 125.653046,150.517807 
	C77.756927,194.008011 49.766232,248.963043 40.836769,313.284790 
	C35.516232,351.610260 38.576580,389.331940 49.295391,426.475739 
	C49.746773,428.039886 49.780319,429.724609 49.930725,431.779968 
	C40.497787,408.782074 34.832474,384.418518 32.162357,359.410950 
	C26.440298,305.819702 33.635197,253.915741 56.584255,205.102356 
	C99.370506,114.094627 170.159363,57.081100 268.701172,35.882553 
	C323.031555,24.194881 376.583557,28.905403 428.864838,47.738636 
	C435.705688,50.202919 441.904694,50.019211 447.362244,44.032524 
	C452.872528,47.802055 458.104736,51.756245 463.751770,56.210617 
	C465.078125,61.845196 468.073181,65.350677 472.564087,67.839493 
	C489.953949,77.476799 506.008392,89.016182 521.225281,101.794525 
	C523.656921,103.836472 527.022278,104.766579 529.955933,106.210701 
	C533.411621,109.401443 536.695984,112.805901 540.356750,115.740845 
	C549.499023,123.070488 558.799622,130.203247 568.076965,137.362823 
	C568.967407,138.050003 570.139893,138.371857 571.519043,138.927063 
	C566.856750,145.834854 567.574402,152.329880 572.295227,159.181702 
	C599.193481,198.221741 616.239563,241.300018 621.660339,288.340454 
	C632.626099,383.498383 605.045349,466.142487 538.403320,535.263672 
	C509.110138,565.646606 474.357391,588.040833 435.089203,603.431213 
	C433.391876,604.096497 431.422577,604.067810 429.323120,604.105835 
z"/>
<path fill="#3AB54A" opacity="1.000000" stroke="none" 
	d="
M307.610931,344.509796 
	C307.761230,347.159149 308.028229,349.807953 308.041351,352.457977 
	C308.094391,363.168823 308.065521,363.169006 297.452759,364.908539 
	C256.955719,371.546326 219.897705,344.482117 213.892059,303.735657 
	C213.170517,298.840240 213.310989,293.819519 213.013824,288.859161 
	C212.801910,285.321960 214.262131,283.151398 217.871918,282.562500 
	C220.812714,282.082733 223.741547,281.529724 227.415436,281.227722 
	C237.741959,285.159576 247.748886,288.058899 256.832581,292.747009 
	C279.321564,304.353699 295.090851,322.927155 307.610931,344.509796 
z"/>
<path fill="#3AB54B" opacity="1.000000" stroke="none" 
	d="
M414.032196,324.000275 
	C416.064087,348.403076 393.462860,374.512512 361.892578,370.855682 
	C356.653320,370.248810 356.400360,369.461884 358.165039,360.384796 
	C371.000122,338.587097 389.778809,327.083313 414.032196,324.000275 
z"/>
<path fill="#3AB44B" opacity="1.000000" stroke="none" 
	d="
M300.951874,456.057281 
	C305.198578,461.724457 305.004669,462.643005 298.936523,465.604675 
	C276.718262,476.448700 249.068588,464.224152 242.955322,440.768555 
	C244.604004,440.943024 245.763275,441.077515 246.911102,441.011871 
	C265.766235,439.932922 283.204956,443.963226 298.672577,455.230255 
	C299.300171,455.687408 300.186218,455.789703 300.951874,456.057281 
z"/>
<path fill="#F8FAF7" opacity="1.000000" stroke="none" 
	d="
M307.565704,344.148712 
	C295.090851,322.927155 279.321564,304.353699 256.832581,292.747009 
	C247.748886,288.058899 237.741959,285.159576 227.850159,281.333435 
	C249.594055,278.074768 268.560516,284.968719 284.776855,299.581207 
	C297.832855,311.345947 305.386749,326.249146 307.565704,344.148712 
z"/>
<path fill="#F9FAF8" opacity="1.000000" stroke="none" 
	d="
M414.142731,323.686707 
	C389.778809,327.083313 371.000122,338.587097 358.338806,360.129974 
	C358.327026,357.703247 358.310425,355.052094 359.002472,352.601044 
	C365.323242,330.215027 388.146606,315.903137 410.978821,319.760529 
	C413.313934,320.155060 414.860779,320.615906 414.142731,323.686707 
z"/>
<path fill="#F7FAF7" opacity="1.000000" stroke="none" 
	d="
M300.986450,455.698822 
	C300.186218,455.789703 299.300171,455.687408 298.672577,455.230255 
	C283.204956,443.963226 265.766235,439.932922 246.911102,441.011871 
	C245.763275,441.077515 244.604004,440.943024 243.175201,440.566162 
	C265.437683,428.014893 288.509705,434.012970 300.986450,455.698822 
z"/>
<path fill="#18582D" opacity="1.000000" stroke="none" 
	d="
M530.379150,106.179642 
	C527.022278,104.766579 523.656921,103.836472 521.225281,101.794525 
	C506.008392,89.016182 489.953949,77.476799 472.564087,67.839493 
	C468.073181,65.350677 465.078125,61.845196 464.055237,56.357178 
	C465.099365,41.827511 475.382111,36.359070 487.732910,43.404156 
	C506.566345,54.147018 524.291260,66.476059 540.539246,80.853470 
	C547.747559,87.231903 547.835388,97.390129 540.450073,102.889076 
	C537.860657,104.817047 534.053467,105.109360 530.379150,106.179642 
z"/>
<path fill="#1B582B" opacity="1.000000" stroke="none" 
	d="
M347.216064,468.212341 
	C349.168488,461.276428 352.810028,458.353638 358.393982,458.889832 
	C363.288849,459.359802 366.916748,463.109558 367.216278,468.008606 
	C367.549622,473.459656 364.170532,477.954987 359.107697,478.795868 
	C353.967743,479.649567 349.264008,476.685059 347.662384,471.517944 
	C347.372925,470.584167 347.328033,469.574524 347.216064,468.212341 
z"/>
</svg>