<?xml version="1.0" encoding="UTF-8"?>
<svg width="23px" height="10px" viewBox="0 0 23 10" version="1.1" xmlns="http://www.w3.org/2000/svg" xmlns:xlink="http://www.w3.org/1999/xlink">
    <!-- Generator: Sketch 51.2 (57519) - http://www.bohemiancoding.com/sketch -->
    <title>Shape</title>
    <desc>Created with Sketch.</desc>
    <defs></defs>
    <g id="Vodjo-2018" stroke="none" stroke-width="1" fill="none" fill-rule="evenodd">
        <g id="Home" transform="translate(-177.000000, -569.000000)" fill="#FFFFFF" fill-rule="nonzero">
            <g id="Header">
                <path d="M198.991565,573.592315 L194.563261,569.168697 C194.338332,568.943768 193.977507,568.943768 193.752577,569.168697 C193.527648,569.393627 193.527648,569.754452 193.752577,569.979381 L197.2015,573.428304 L177.576382,573.428304 C177.257732,573.428304 177,573.686036 177,574.004686 C177,574.323336 177.257732,574.581068 177.576382,574.581068 L197.2015,574.581068 L193.752577,578.020619 C193.527648,578.245548 193.527648,578.606373 193.752577,578.831303 C193.865042,578.943768 194.010309,579 194.160262,579 C194.310216,579 194.455483,578.943768 194.567948,578.831303 L198.996251,574.402999 C199.216495,574.182755 199.216495,573.817245 198.991565,573.592315 Z" id="Shape"></path>
            </g>
        </g>
    </g>
</svg>